<?xml version="1.0" standalone="no"?><!DOCTYPE svg PUBLIC "-//W3C//DTD SVG 1.1//EN" "http://www.w3.org/Graphics/SVG/1.1/DTD/svg11.dtd"><svg t="1677733383195" class="icon" viewBox="0 0 1024 1024" version="1.1" xmlns="http://www.w3.org/2000/svg" p-id="3420" xmlns:xlink="http://www.w3.org/1999/xlink" width="200" height="200"><path d="M473 301h72v145h-72zM281.281 793.282l-46.28-55.155 98.002-82.234 46.28 55.155zM736.722 793.282l46.28-55.155-99.325-83.345-46.281 55.155z" fill="#333333" p-id="3421"></path><path d="M509 281c-30.928 0-56-25.072-56-56s25.072-56 56-56 56 25.072 56 56-25.072 56-56 56z m0 64c66.274 0 120-53.726 120-120s-53.726-120-120-120-120 53.726-120 120 53.726 120 120 120zM181 855c-30.928 0-56-25.072-56-56s25.072-56 56-56 56 25.072 56 56-25.072 56-56 56z m0 64c66.274 0 120-53.726 120-120s-53.726-120-120-120S61 732.726 61 799s53.726 120 120 120zM843 855c-30.928 0-56-25.072-56-56s25.072-56 56-56 56 25.072 56 56-25.072 56-56 56z m0 64c66.274 0 120-53.726 120-120s-53.726-120-120-120-120 53.726-120 120 53.726 120 120 120z" fill="#333333" p-id="3422"></path><path d="M509 464.138l128.918 74.431v148.862L509 761.862l-128.918-74.431V538.569L509 464.138z m8-78.519a16 16 0 0 0-16 0L316.082 492.381a16 16 0 0 0-8 13.857v213.524a16 16 0 0 0 8 13.857L501 840.381a16 16 0 0 0 16 0l184.918-106.762a16 16 0 0 0 8-13.857V506.238a16 16 0 0 0-8-13.857L517 385.619z" fill="#216DCD" p-id="3423"></path></svg>