<?xml version="1.0" standalone="no"?><!DOCTYPE svg PUBLIC "-//W3C//DTD SVG 1.1//EN" "http://www.w3.org/Graphics/SVG/1.1/DTD/svg11.dtd"><svg t="1677733379407" class="icon" viewBox="0 0 1024 1024" version="1.1" xmlns="http://www.w3.org/2000/svg" p-id="3265" xmlns:xlink="http://www.w3.org/1999/xlink" width="200" height="200"><path d="M843.65312 405.92384l-95.83616-95.26784 41.74848-41.472 95.83104 95.27296z m-102.50752 101.888l-95.83104-95.25248 41.74336-41.472 95.83104 95.27296z m-509.5424 248.41728L135.76704 660.992l41.74848-41.4976L273.34656 714.752z m102.5024-101.888l-95.83104-95.26784 41.74848-41.4976L375.85408 612.864z" fill="#F79C42" p-id="3266"></path><path d="M893.84448 313.21088C773.16096 482.7136 625.97632 490.06592 540.16 486.1696a364.4928 364.4928 0 0 1 18.69824-165.82656l54.69184 54.272 41.76384-41.472-70.7072-70.18496a447.2064 447.2064 0 0 1 49.0752-71.9872l82.432 81.84832 41.76896-41.472-83.69152-83.09248c12.4672-11.50976 21.14048-18.11456 22.71232-19.28192L661.64736 81.92c-8.704 6.41024-203.52 153.216-181.38112 399.11424-248.05376-17.1008-392.064 179.1488-398.336 187.904l48.0768 34.0736c5.59104-7.7312 135.68-183.63904 356.62336-162.6112 2.7392 41.64608 3.01568 97.95072-17.10592 159.01184L412.00128 642.304l-41.76896 41.472 74.08128 73.53856a377.10336 377.10336 0 0 1-50.3552 70.72256l-84.51584-83.91168-41.76896 41.472 84.1728 83.57376q-15.11424 12.99456-32.45056 25.70752L354.43712 942.08c187.05408-136.83712 196.736-302.92992 191.62112-396.99968 94.83264 3.24096 261.90336-9.6512 396.02176-198.02624z" fill="#5288F5" p-id="3267"></path></svg>