<?xml version="1.0" standalone="no"?><!DOCTYPE svg PUBLIC "-//W3C//DTD SVG 1.1//EN" "http://www.w3.org/Graphics/SVG/1.1/DTD/svg11.dtd"><svg t="1677738950339" class="icon" viewBox="0 0 1024 1024" version="1.1" xmlns="http://www.w3.org/2000/svg" p-id="20289" xmlns:xlink="http://www.w3.org/1999/xlink" width="200" height="200"><path d="M128 102.4a25.6 25.6 0 0 1 25.6-25.6h716.8a25.6 25.6 0 0 1 25.6 25.6v819.2a25.6 25.6 0 0 1-25.6 25.6H153.6a25.6 25.6 0 0 1-25.6-25.6V102.4z m51.2 25.6v768h665.6v-768h-665.6z" fill="#333333" p-id="20290"></path><path d="M307.2 512h179.2a51.2 51.2 0 0 1 51.2 51.2v204.8a51.2 51.2 0 0 1-51.2 51.2H307.2a51.2 51.2 0 0 1-51.2-51.2v-204.8a51.2 51.2 0 0 1 51.2-51.2z m0 256h179.2v-204.8H307.2v204.8z" fill="#333333" p-id="20291"></path><path d="M614.4 588.8h153.6v-51.2h-153.6zM614.4 691.2h153.6v-51.2h-153.6zM614.4 793.6h153.6v-51.2h-153.6zM245.76 425.3696V206.6432h30.1056l47.3088 131.7888h0.6144V206.6432h31.3344v218.7264H325.632L277.7088 293.888h-0.6144v131.4816H245.76z m136.192 0V206.6432h93.3888v29.4912H413.2864v64.2048h54.0672v29.4912H413.2864v64.2048h62.0544v31.3344H381.952z m274.7904-218.7264l-32.5632 218.7264h-29.4912l-23.9616-141.9264h-0.6144l-23.6544 141.9264h-29.4912L484.352 206.6432h33.1776l15.6672 138.8544h0.6144l24.576-138.8544h23.9616l25.4976 142.2336h0.6144l15.0528-142.2336h33.1776z m119.6032 62.976h-31.3344v-7.0656a33.4336 33.4336 0 0 0-5.0688-18.5856c-3.3792-5.2224-9.0624-7.8336-17.0496-7.8336a19.712 19.712 0 0 0-10.4448 2.4576 20.5824 20.5824 0 0 0-6.4512 6.144 26.0096 26.0096 0 0 0-3.3792 9.0624 59.1872 59.1872 0 0 0-0.9216 10.5984l0.2048 7.68 0.256 3.072a20.4288 20.4288 0 0 0 2.304 7.68 17.1008 17.1008 0 0 0 5.376 5.8368 49.408 49.408 0 0 0 9.728 4.9152l23.9104 9.5232c6.9632 2.6624 12.5952 5.7856 16.896 9.3696 4.3008 3.584 7.68 7.7312 10.1376 12.4416 2.2528 4.9152 3.7888 10.496 4.608 16.7424 0.8192 6.2464 1.2288 13.3632 1.2288 21.3504 0 9.216-0.9216 17.7664-2.7648 25.6512a54.016 54.016 0 0 1-8.9088 20.1216 44.2368 44.2368 0 0 1-16.896 13.5168 59.5968 59.5968 0 0 1-25.4976 4.9152 55.808 55.808 0 0 1-21.1968-3.9936 50.432 50.432 0 0 1-16.896-11.0592 53.8112 53.8112 0 0 1-11.2128-16.4352 49.92 49.92 0 0 1-4.096-20.4288v-11.6736h31.2832v9.8304a25.6 25.6 0 0 0 5.12 15.5136c3.328 4.608 9.0112 6.912 16.9984 6.912a27.4944 27.4944 0 0 0 12.4416-2.304 16.5376 16.5376 0 0 0 6.912-6.6048 24.2688 24.2688 0 0 0 2.9184-10.2912c0.3072-3.9936 0.512-8.448 0.512-13.3632l-0.3072-10.0864a84.224 84.224 0 0 0-0.3584-4.0448 24.32 24.32 0 0 0-2.4576-8.9088 17.2544 17.2544 0 0 0-5.632-5.5296 72.8064 72.8064 0 0 0-9.4208-4.608l-22.4256-9.216c-13.5168-5.5296-22.528-12.8512-27.136-21.9648a75.5712 75.5712 0 0 1-6.9632-34.2528c0-8.192 1.1264-15.9744 3.3792-23.3472 2.2528-7.3728 5.632-13.7216 10.1376-19.0464a46.4384 46.4384 0 0 1 16.4352-12.7488c6.656-3.1744 14.592-4.7616 23.808-4.7616 7.7824 0 14.8992 1.4336 21.3504 4.3008 6.4512 2.8672 12.032 6.656 16.7424 11.3664a47.4624 47.4624 0 0 1 14.1312 33.792v15.36z" fill="#6B57FE" p-id="20292"></path></svg>